<?xml version="1.0"?>
<svg version="1.1" xmlns="http://www.w3.org/2000/svg" width="400px" height="200px" style=""><path fill="#1978bd" d="M51.45947265625,91.7216796875q0-1.12451171875,0.275146484375-1.638916015625t0.78955078125-0.7177734375t1.244140625-0.155517578125t1.710693359375,0.0478515625q2.48828125,0,5.0244140625,0.765625t4.56982421875,2.237060546875t3.27783203125,3.624755859375t1.244140625,4.95263671875q0,1.8662109375-0.538330078125,3.529052734375t-1.519287109375,3.1103515625t-2.296875,2.643798828125t-2.89501953125,2.08154296875q0.64599609375,0.64599609375,1.6748046875,2.284912109375t2.03369140625,3.4931640625t1.782470703125,3.600830078125t0.921142578125,2.6318359375l-0.287109375,0.4306640625q-0.64599609375,0.3828125-1.55517578125,0.40673828125q-0.4306640625,0-1.12451171875-0.107666015625t-0.88525390625-0.634033203125q-0.98095703125-2.75146484375-2.141357421875-5.67041015625t-2.859130859375-5.263671875l0-0.0478515625q-0.59814453125,0.2392578125-1.184326171875,0.466552734375t-1.184326171875,0.418701171875q0.19140625,2.65576171875,0.394775390625,5.227783203125t0.203369140625,5.203857421875q0,0.3349609375-0.322998046875,0.538330078125t-0.729736328125,0.322998046875t-0.825439453125,0.16748046875t-0.681884765625,0.0478515625q-0.2392578125,0-0.681884765625-0.0478515625t-0.849365234375-0.16748046875t-0.705810546875-0.346923828125t-0.299072265625-0.610107421875q0-2.65576171875-0.11962890625-5.299560546875t-0.26318359375-5.275634765625q-0.74169921875-0.478515625-0.74169921875-1.244140625q0-0.59814453125,0.57421875-0.8134765625q-0.287109375-5.04833984375-0.657958984375-10.07275390625t-0.370849609375-10.12060546875z M55.7900390625,90.97998046875q0.3349609375,5.19189453125,0.753662109375,10.26416015625t0.801513671875,10.26416015625q1.6748046875-0.478515625,3.122314453125-1.662841796875t2.500244140625-2.667724609375t1.638916015625-3.22998046875t0.586181640625-3.46923828125q0-1.9140625-0.765625-3.672607421875t-2.03369140625-3.074462890625q-1.2919921875-1.31591796875-2.966796875-2.0576171875q-1.4833984375-0.64599609375-3.1103515625-0.64599609375l-0.4306640625,0z M74.492104492188,109.45068359375q0-4.115234375,0.227294921875-8.134765625t0.562255859375-8.134765625q0.095703125-1.07666015625,0.11962890625-2.08154296875t0.227294921875-1.758544921875t0.7177734375-1.1962890625t1.591064453125-0.442626953125q0.69384765625,0,1.447509765625,0.2392578125t0.753662109375,1.12451171875q0,3.32568359375-0.275146484375,6.543701171875t-0.370849609375,6.400146484375q2.60791015625-2.94287109375,5.57470703125-5.490966796875t6.29248046875-5.036376953125q0.478515625-0.3349609375,1.22021484375-0.35888671875q0.2392578125,0,0.418701171875,0.02392578125t0.370849609375,0.07177734375q0.2392578125,0.095703125,0.490478515625,0.227294921875t0.251220703125,0.370849609375q0,0.19140625-0.21533203125,0.3349609375q-2.48828125,2.009765625-4.916748046875,4.09130859375t-4.629638671875,4.4501953125q0.287109375,0.55029296875,0.490478515625,1.02880859375t0.442626953125,1.02880859375q2.009765625,4.76123046875,3.433349609375,9.749755859375t3.026611328125,9.893310546875q0.1435546875,0.55029296875,0.418701171875,1.136474609375t0.514404296875,1.17236328125t0.418701171875,1.1005859375t0.179443359375,0.849365234375q0,0.4306640625-0.275146484375,0.681884765625t-0.634033203125,0.394775390625t-0.777587890625,0.19140625t-0.777587890625,0.0478515625q-0.83740234375,0-1.495361328125-0.2392578125t-1.040771484375-1.07666015625q-1.7705078125-5.646484375-3.409423828125-11.29296875t-3.313720703125-11.388671875q-0.55029296875,0.55029296875-1.1005859375,1.375732421875t-1.0048828125,1.519287109375q0,3.5888671875,0.16748046875,7.1298828125t0.57421875,7.1298828125q0.095703125,1.02880859375,0.322998046875,2.0576171875t0.227294921875,2.10546875q0,0.78955078125-0.8134765625,1.1005859375t-1.79443359375,0.31103515625q-1.07666015625,0-1.614990234375-0.21533203125t-0.765625-0.562255859375t-0.275146484375-0.765625t-0.1435546875-0.801513671875q-0.55029296875-3.7802734375-0.69384765625-7.476806640625t-0.1435546875-7.428955078125z"/><path fill="#" d=""/></svg>
