<?xml version="1.0"?>
<svg version="1.1" xmlns="http://www.w3.org/2000/svg" width="404px" height="200px" style=""><path fill="#1d3a99" d="M51.66796875,90.5390625q0-1.28515625,0.314453125-1.873046875t0.90234375-0.8203125t1.421875-0.177734375t1.955078125,0.0546875q2.84375,0,5.7421875,0.875t5.22265625,2.556640625t3.74609375,4.142578125t1.421875,5.66015625q0,2.1328125-0.615234375,4.033203125t-1.736328125,3.5546875t-2.625,3.021484375t-3.30859375,2.37890625q0.73828125,0.73828125,1.9140625,2.611328125t2.32421875,3.9921875t2.037109375,4.115234375t1.052734375,3.0078125l-0.328125,0.4921875q-0.73828125,0.4375-1.77734375,0.46484375q-0.4921875,0-1.28515625-0.123046875t-1.01171875-0.724609375q-1.12109375-3.14453125-2.447265625-6.48046875t-3.267578125-6.015625l0-0.0546875q-0.68359375,0.2734375-1.353515625,0.533203125t-1.353515625,0.478515625q0.21875,3.03515625,0.451171875,5.974609375t0.232421875,5.947265625q0,0.3828125-0.369140625,0.615234375t-0.833984375,0.369140625t-0.943359375,0.19140625t-0.779296875,0.0546875q-0.2734375,0-0.779296875-0.0546875t-0.970703125-0.19140625t-0.806640625-0.396484375t-0.341796875-0.697265625q0-3.03515625-0.13671875-6.056640625t-0.30078125-6.029296875q-0.84765625-0.546875-0.84765625-1.421875q0-0.68359375,0.65625-0.9296875q-0.328125-5.76953125-0.751953125-11.51171875t-0.423828125-11.56640625z M56.6171875,89.69140625q0.3828125,5.93359375,0.861328125,11.73046875t0.916015625,11.73046875q1.9140625-0.546875,3.568359375-1.900390625t2.857421875-3.048828125t1.873046875-3.69140625t0.669921875-3.96484375q0-2.1875-0.875-4.197265625t-2.32421875-3.513671875q-1.4765625-1.50390625-3.390625-2.3515625q-1.6953125-0.73828125-3.5546875-0.73828125l-0.4921875,0z M77.9909765625,117.80078125q0-1.859375,0.505859375-3.58203125t1.517578125-3.076171875t2.529296875-2.16015625t3.513671875-0.806640625q1.23046875,0,2.720703125,0.369140625t2.802734375,1.09375t2.1875,1.845703125t0.875,2.5703125q0,0.68359375-0.232421875,1.0390625t-0.943359375,0.35546875l-0.30078125-0.0546875q0.79296875,2.1328125,1.3671875,4.375t1.12109375,4.484375q0.21875,0.4375,0.328125,0.779296875t0.109375,0.669921875q0,0.4375-0.24609375,0.724609375t-0.642578125,0.423828125t-0.8203125,0.19140625t-0.751953125,0.0546875q-1.17578125,0-1.763671875-0.41015625t-0.84765625-1.12109375t-0.314453125-1.599609375t-0.21875-1.791015625q-0.328125,1.06640625-0.861328125,2.078125t-1.2578125,1.818359375t-1.708984375,1.28515625t-2.21484375,0.478515625q-1.8046875,0-3.03515625-1.0390625t-1.982421875-2.556640625t-1.09375-3.240234375t-0.341796875-3.19921875z M81.8737890625,117.41796875q0,1.01171875,0.13671875,2.1328125t0.451171875,2.21484375t0.806640625,2.064453125t1.23046875,1.708984375q1.33984375-1.44921875,1.982421875-3.52734375t1.1484375-4.005859375t1.1484375-3.30859375t1.982421875-1.380859375q0.84765625,0,1.421875,0.30078125q-0.2734375-0.68359375-0.90234375-1.326171875t-1.408203125-1.17578125t-1.61328125-0.875t-1.572265625-0.341796875q-0.21875,0-0.505859375,0.068359375t-0.451171875,0.013671875q-1.12109375,0.328125-1.845703125,1.134765625t-1.17578125,1.900390625t-0.642578125,2.2421875t-0.19140625,2.16015625z M101.688984375,120.78125l0-2.5703125q0-1.39453125,0.068359375-3.951171875t0.177734375-5.60546875t0.30078125-6.357421875t0.4375-6.248046875t0.587890625-5.263671875t0.779296875-3.4453125q0.2734375-0.62890625,0.90234375-0.79296875t1.23046875-0.1640625q0.95703125,0,1.681640625,0.423828125t0.724609375,1.544921875l-0.4921875,0.546875q-0.95703125,6.31640625-1.23046875,12.6875t-0.3828125,12.7421875q0.68359375-1.06640625,1.544921875-2.091796875t1.9140625-1.818359375t2.26953125-1.271484375t2.666015625-0.478515625q1.859375,0,3.076171875,1.12109375t2.009765625,2.912109375t1.17578125,4.005859375t0.587890625,4.4296875t0.287109375,4.197265625t0.24609375,3.294921875q-0.51953125,0.7109375-1.53125,0.7109375l-0.08203125,0q-0.4375,0-0.95703125-0.109375t-0.68359375-0.546875l0.0546875,0.0546875q-0.3828125-0.84765625-0.51953125-2.447265625t-0.21875-3.52734375t-0.287109375-3.951171875t-0.615234375-3.6640625t-1.203125-2.70703125t-2.1328125-1.12109375l-0.1640625,0q-1.61328125,0-2.70703125,0.984375q-1.1484375,1.0390625-1.859375,2.734375t-1.09375,3.7734375t-0.587890625,4.005859375t-0.314453125,3.5t-0.2734375,2.310546875q-0.1640625,0.62890625-0.970703125,0.833984375t-1.380859375,0.205078125q-1.33984375,0-2.1875-0.765625q-0.62890625-1.50390625-0.73828125-3.74609375t-0.109375-4.375z M126.7268359375,115.39453125q0-0.546875,0.123046875-1.44921875t0.287109375-1.791015625t0.3828125-1.654296875t0.51953125-0.984375q0.21875-0.21875,0.751953125-0.4375t1.12109375-0.314453125t1.09375,0.08203125t0.615234375,0.724609375q-0.3828125,0.4921875-0.697265625,1.681640625t-0.478515625,2.638671875q-0.13671875,1.23046875-0.13671875,2.54296875l0,0.46484375q0.02734375,1.53125,0.2734375,2.81640625t0.751953125,2.119140625t1.408203125,0.833984375q1.9140625,0,3.5-1.763671875t2.81640625-4.306640625t2.16015625-5.400390625t1.5859375-4.990234375q0.1640625-0.62890625,0.779296875-0.84765625t1.326171875-0.150390625t1.271484375,0.341796875t0.669921875,0.65625q-0.546875,4.59375-0.861328125,9.1875t-0.314453125,9.2421875q0,0.90234375,0.08203125,1.654296875t-0.08203125,1.28515625t-0.724609375,0.84765625t-1.791015625,0.314453125q-0.2734375,0-0.697265625-0.0546875t-0.875-0.177734375t-0.765625-0.369140625t-0.314453125-0.57421875q0-2.0234375,0.150390625-4.15625t0.423828125-4.12890625q-0.73828125,1.06640625-1.626953125,2.119140625t-1.955078125,1.900390625t-2.296875,1.353515625t-2.65234375,0.505859375q-2.0234375,0-3.185546875-0.95703125t-1.75-2.392578125t-0.73828125-3.130859375t-0.150390625-3.28125z M151.3271875,115.39453125q0-0.546875,0.123046875-1.44921875t0.287109375-1.791015625t0.3828125-1.654296875t0.51953125-0.984375q0.21875-0.21875,0.751953125-0.4375t1.12109375-0.314453125t1.09375,0.08203125t0.615234375,0.724609375q-0.3828125,0.4921875-0.697265625,1.681640625t-0.478515625,2.638671875q-0.13671875,1.23046875-0.13671875,2.54296875l0,0.46484375q0.02734375,1.53125,0.2734375,2.81640625t0.751953125,2.119140625t1.408203125,0.833984375q1.9140625,0,3.5-1.763671875t2.81640625-4.306640625t2.16015625-5.400390625t1.5859375-4.990234375q0.1640625-0.62890625,0.779296875-0.84765625t1.326171875-0.150390625t1.271484375,0.341796875t0.669921875,0.65625q-0.546875,4.59375-0.861328125,9.1875t-0.314453125,9.2421875q0,0.90234375,0.08203125,1.654296875t-0.08203125,1.28515625t-0.724609375,0.84765625t-1.791015625,0.314453125q-0.2734375,0-0.697265625-0.0546875t-0.875-0.177734375t-0.765625-0.369140625t-0.314453125-0.57421875q0-2.0234375,0.150390625-4.15625t0.423828125-4.12890625q-0.73828125,1.06640625-1.626953125,2.119140625t-1.955078125,1.900390625t-2.296875,1.353515625t-2.65234375,0.505859375q-2.0234375,0-3.185546875-0.95703125t-1.75-2.392578125t-0.73828125-3.130859375t-0.150390625-3.28125z M177.0486328125,127.5078125q0-0.79296875,0.068359375-1.66796875t0.123046875-1.640625l0.1640625-4.1015625q0.2734375-4.921875,0.669921875-9.6796875t0.669921875-9.625q0.1640625-2.6796875,0.24609375-5.263671875t0.24609375-5.263671875q-0.109375-0.21875-0.109375-0.30078125q0-0.3828125,0.287109375-0.6015625t0.669921875-0.369140625t0.806640625-0.205078125t0.642578125-0.0546875l0.62890625,0q0.84765625,0.109375,1.23046875,0.533203125t0.4921875,1.01171875t0.0546875,1.2578125t-0.0546875,1.244140625q0,3.96484375-0.19140625,8.080078125t-0.4375,8.2578125t-0.451171875,8.28515625t-0.205078125,8.189453125l0,1.9140625q0,1.28515625-0.724609375,1.6953125t-2.009765625,0.41015625q-1.12109375,0-1.96875-0.4921875t-0.84765625-1.61328125z M200.2454296875,110.80078125q0-4.703125,0.259765625-9.296875t0.642578125-9.296875q0.109375-1.23046875,0.13671875-2.37890625t0.259765625-2.009765625t0.8203125-1.3671875t1.818359375-0.505859375q0.79296875,0,1.654296875,0.2734375t0.861328125,1.28515625q0,3.80078125-0.314453125,7.478515625t-0.423828125,7.314453125q2.98046875-3.36328125,6.37109375-6.275390625t7.19140625-5.755859375q0.546875-0.3828125,1.39453125-0.41015625q0.2734375,0,0.478515625,0.02734375t0.423828125,0.08203125q0.2734375,0.109375,0.560546875,0.259765625t0.287109375,0.423828125q0,0.21875-0.24609375,0.3828125q-2.84375,2.296875-5.619140625,4.67578125t-5.291015625,5.0859375q0.328125,0.62890625,0.560546875,1.17578125t0.505859375,1.17578125q2.296875,5.44140625,3.923828125,11.142578125t3.458984375,11.306640625q0.1640625,0.62890625,0.478515625,1.298828125t0.587890625,1.33984375t0.478515625,1.2578125t0.205078125,0.970703125q0,0.4921875-0.314453125,0.779296875t-0.724609375,0.451171875t-0.888671875,0.21875t-0.888671875,0.0546875q-0.95703125,0-1.708984375-0.2734375t-1.189453125-1.23046875q-2.0234375-6.453125-3.896484375-12.90625t-3.787109375-13.015625q-0.62890625,0.62890625-1.2578125,1.572265625t-1.1484375,1.736328125q0,4.1015625,0.19140625,8.1484375t0.65625,8.1484375q0.109375,1.17578125,0.369140625,2.3515625t0.259765625,2.40625q0,0.90234375-0.9296875,1.2578125t-2.05078125,0.35546875q-1.23046875,0-1.845703125-0.24609375t-0.875-0.642578125t-0.314453125-0.875t-0.1640625-0.916015625q-0.62890625-4.3203125-0.79296875-8.544921875t-0.1640625-8.490234375z M228.26375,120.78125l0-2.5703125q0-1.39453125,0.068359375-3.951171875t0.177734375-5.60546875t0.30078125-6.357421875t0.4375-6.248046875t0.587890625-5.263671875t0.779296875-3.4453125q0.2734375-0.62890625,0.90234375-0.79296875t1.23046875-0.1640625q0.95703125,0,1.681640625,0.423828125t0.724609375,1.544921875l-0.4921875,0.546875q-0.95703125,6.31640625-1.23046875,12.6875t-0.3828125,12.7421875q0.68359375-1.06640625,1.544921875-2.091796875t1.9140625-1.818359375t2.26953125-1.271484375t2.666015625-0.478515625q1.859375,0,3.076171875,1.12109375t2.009765625,2.912109375t1.17578125,4.005859375t0.587890625,4.4296875t0.287109375,4.197265625t0.24609375,3.294921875q-0.51953125,0.7109375-1.53125,0.7109375l-0.08203125,0q-0.4375,0-0.95703125-0.109375t-0.68359375-0.546875l0.0546875,0.0546875q-0.3828125-0.84765625-0.51953125-2.447265625t-0.21875-3.52734375t-0.287109375-3.951171875t-0.615234375-3.6640625t-1.203125-2.70703125t-2.1328125-1.12109375l-0.1640625,0q-1.61328125,0-2.70703125,0.984375q-1.1484375,1.0390625-1.859375,2.734375t-1.09375,3.7734375t-0.587890625,4.005859375t-0.314453125,3.5t-0.2734375,2.310546875q-0.1640625,0.62890625-0.970703125,0.833984375t-1.380859375,0.205078125q-1.33984375,0-2.1875-0.765625q-0.62890625-1.50390625-0.73828125-3.74609375t-0.109375-4.375z M254.4226953125,117.14453125q0-2.515625,0.587890625-4.935546875t0.998046875-4.826171875q0.109375-0.62890625,0.861328125-0.779296875t1.271484375-0.150390625q0.90234375,0,1.44921875,0.2734375q0.21875,0.109375,0.41015625,0.24609375t0.19140625,0.35546875q0,2.3515625-0.560546875,4.59375t-0.560546875,4.7578125q0,0.84765625,0.123046875,1.599609375t0.232421875,1.490234375l0.1640625,0.79296875q0,0.21875,0.02734375,0.3828125t0.08203125,0.3828125q0,0.4921875-0.697265625,0.669921875t-1.216796875,0.177734375q-0.79296875,0-1.462890625-0.314453125t-1.052734375-1.080078125l-0.3828125-0.79296875q-0.328125-0.62890625-0.328125-1.408203125t-0.13671875-1.435546875z M256.1726953125,100.68359375l0-0.51953125q0-1.28515625,0.642578125-2.296875t1.927734375-1.01171875q0.1640625,0,0.314453125,0.02734375t0.314453125,0.02734375q0.328125,0.0546875,0.861328125,0.259765625t0.533203125,0.642578125l0,0.0546875q-0.109375,0.21875-0.13671875,0.451171875t-0.13671875,0.396484375l0.0546875-0.0546875q-0.328125,0.84765625-0.533203125,1.3671875t-0.451171875,0.833984375t-0.615234375,0.451171875t-1.052734375,0.13671875q-0.109375,0-0.3828125-0.02734375t-0.587890625-0.109375t-0.533203125-0.21875t-0.21875-0.41015625z M266.362890625,117.14453125q0-2.515625,0.587890625-4.935546875t0.998046875-4.826171875q0.109375-0.62890625,0.861328125-0.779296875t1.271484375-0.150390625q0.90234375,0,1.44921875,0.2734375q0.21875,0.109375,0.41015625,0.24609375t0.19140625,0.35546875q0,2.3515625-0.560546875,4.59375t-0.560546875,4.7578125q0,0.84765625,0.123046875,1.599609375t0.232421875,1.490234375l0.1640625,0.79296875q0,0.21875,0.02734375,0.3828125t0.08203125,0.3828125q0,0.4921875-0.697265625,0.669921875t-1.216796875,0.177734375q-0.79296875,0-1.462890625-0.314453125t-1.052734375-1.080078125l-0.3828125-0.79296875q-0.328125-0.62890625-0.328125-1.408203125t-0.13671875-1.435546875z M268.112890625,100.68359375l0-0.51953125q0-1.28515625,0.642578125-2.296875t1.927734375-1.01171875q0.1640625,0,0.314453125,0.02734375t0.314453125,0.02734375q0.328125,0.0546875,0.861328125,0.259765625t0.533203125,0.642578125l0,0.0546875q-0.109375,0.21875-0.13671875,0.451171875t-0.13671875,0.396484375l0.0546875-0.0546875q-0.328125,0.84765625-0.533203125,1.3671875t-0.451171875,0.833984375t-0.615234375,0.451171875t-1.052734375,0.13671875q-0.109375,0-0.3828125-0.02734375t-0.587890625-0.109375t-0.533203125-0.21875t-0.21875-0.41015625z M278.3030859375,117.25390625q0-1.96875,0.505859375-3.951171875t1.572265625-3.5546875t2.720703125-2.556640625t3.896484375-0.984375q0.95703125,0,2.10546875,0.232421875t2.119140625,0.73828125t1.640625,1.3125t0.669921875,1.982421875q0,0.73828125-0.3828125,0.984375t-1.01171875,0.24609375l-0.19140625-0.2734375t-0.533203125-0.697265625t-0.724609375-0.90234375t-0.73828125-0.806640625q-1.12109375-1.12109375-2.10546875-1.203125l-0.21875,0q-0.8203125,0-1.53125,0.4921875q-0.79296875,0.6015625-1.408203125,1.6953125t-1.025390625,2.32421875t-0.642578125,2.48828125t-0.232421875,2.078125q0,1.12109375,0.259765625,2.556640625t0.875,2.720703125t1.55859375,2.16015625t2.419921875,0.875q1.33984375,0,2.43359375-0.65625t2.091796875-1.462890625t1.955078125-1.44921875t1.96875-0.642578125q0.4375,0,0.888671875,0.109375t0.451171875,0.57421875l0,0.1640625q-0.4921875,1.28515625-1.66796875,2.26953125t-2.638671875,1.708984375t-3.03515625,1.080078125t-2.802734375,0.35546875q-2.296875,0-4.033203125-0.751953125t-2.884765625-2.064453125t-1.736328125-3.158203125t-0.587890625-4.033203125z M302.16515625,120.78125l0-2.5703125q0-1.39453125,0.068359375-3.951171875t0.177734375-5.60546875t0.30078125-6.357421875t0.4375-6.248046875t0.587890625-5.263671875t0.779296875-3.4453125q0.2734375-0.62890625,0.90234375-0.79296875t1.23046875-0.1640625q0.95703125,0,1.681640625,0.423828125t0.724609375,1.544921875l-0.4921875,0.546875q-0.95703125,6.31640625-1.23046875,12.6875t-0.3828125,12.7421875q0.68359375-1.06640625,1.544921875-2.091796875t1.9140625-1.818359375t2.26953125-1.271484375t2.666015625-0.478515625q1.859375,0,3.076171875,1.12109375t2.009765625,2.912109375t1.17578125,4.005859375t0.587890625,4.4296875t0.287109375,4.197265625t0.24609375,3.294921875q-0.51953125,0.7109375-1.53125,0.7109375l-0.08203125,0q-0.4375,0-0.95703125-0.109375t-0.68359375-0.546875l0.0546875,0.0546875q-0.3828125-0.84765625-0.51953125-2.447265625t-0.21875-3.52734375t-0.287109375-3.951171875t-0.615234375-3.6640625t-1.203125-2.70703125t-2.1328125-1.12109375l-0.1640625,0q-1.61328125,0-2.70703125,0.984375q-1.1484375,1.0390625-1.859375,2.734375t-1.09375,3.7734375t-0.587890625,4.005859375t-0.314453125,3.5t-0.2734375,2.310546875q-0.1640625,0.62890625-0.970703125,0.833984375t-1.380859375,0.205078125q-1.33984375,0-2.1875-0.765625q-0.62890625-1.50390625-0.73828125-3.74609375t-0.109375-4.375z M328.3241015625,117.14453125q0-2.515625,0.587890625-4.935546875t0.998046875-4.826171875q0.109375-0.62890625,0.861328125-0.779296875t1.271484375-0.150390625q0.90234375,0,1.44921875,0.2734375q0.21875,0.109375,0.41015625,0.24609375t0.19140625,0.35546875q0,2.3515625-0.560546875,4.59375t-0.560546875,4.7578125q0,0.84765625,0.123046875,1.599609375t0.232421875,1.490234375l0.1640625,0.79296875q0,0.21875,0.02734375,0.3828125t0.08203125,0.3828125q0,0.4921875-0.697265625,0.669921875t-1.216796875,0.177734375q-0.79296875,0-1.462890625-0.314453125t-1.052734375-1.080078125l-0.3828125-0.79296875q-0.328125-0.62890625-0.328125-1.408203125t-0.13671875-1.435546875z M330.0741015625,100.68359375l0-0.51953125q0-1.28515625,0.642578125-2.296875t1.927734375-1.01171875q0.1640625,0,0.314453125,0.02734375t0.314453125,0.02734375q0.328125,0.0546875,0.861328125,0.259765625t0.533203125,0.642578125l0,0.0546875q-0.109375,0.21875-0.13671875,0.451171875t-0.13671875,0.396484375l0.0546875-0.0546875q-0.328125,0.84765625-0.533203125,1.3671875t-0.451171875,0.833984375t-0.615234375,0.451171875t-1.052734375,0.13671875q-0.109375,0-0.3828125-0.02734375t-0.587890625-0.109375t-0.533203125-0.21875t-0.21875-0.41015625z"/><path fill="#" d=""/></svg>
